<svg xmlns="http://www.w3.org/2000/svg"><symbol id="mecha-stilts" viewBox="0 0 189.8 219.2"><path d="M89.2 135.2h11.5v11.34H89.2zm-21.6 0h18v11.34h-18zm-15.2 0h11.5v11.34H52.4zm51.9 0h18v11.34h-18zm-9.4-75.1c-21.1 0-38.7 12.8-39.6 36h79.2c-.9-23.2-18.5-36-39.6-36zm-53.3 71.5h106.6V99.7H41.6zM94 119.3h43.9a1.8 1.8 0 0 1 0 3.6H94a1.8 1.8 0 1 1 0-3.6z"/><path d="M94.9 0L0 54.8v109.6l94.9 54.8 94.9-54.8V54.8zm56.9 133.4a1.7 1.7 0 0 1-1.8 1.8h-9v11.3h9a1.8 1.8 0 0 1 0 3.6H39.8a1.8 1.8 0 0 1 0-3.6h9v-11.3h-9a1.8 1.8 0 0 1-1.8-1.8V97.9a1.7 1.7 0 0 1 1.8-1.8h11.9c.9-25.6 20-39.6 43.2-39.6s42.3 14 43.2 39.6H150a1.7 1.7 0 0 1 1.8 1.8z"/><path d="M125.9 135.2h11.5v11.34h-11.5z"/></symbol><symbol id="super-domes" viewBox="0 0 189.8 219.2"><path d="M91.3 69.5c-23 1.4-42.3 18.1-47.9 39.9h19.3zm1.8 39.9V73.1l-25.9 36.3h25.9zm3.6-40.1v40.1h49.7a53.6 53.6 0 0 0-49.7-40.1zm-52 57.2h48.4v19.98H44.7z"/><path d="M94.9 0L0 54.8v109.6l94.9 54.8 94.9-54.8V54.8zm77.6 126.5h-23.8v21.8a1.7 1.7 0 0 1-1.8 1.8h-104a1.7 1.7 0 0 1-1.8-1.8v-21.8H17.3a1.8 1.8 0 0 1 0-3.6h13.5v-11.7a1.7 1.7 0 0 1 1.8-1.8h7.1a57 57 0 0 1 55-43.7c.2-.2.4-.2.7 0a57 57 0 0 1 54.8 43.7h7a1.7 1.7 0 0 1 1.8 1.8v11.7h13.5a1.8 1.8 0 1 1 0 3.6z"/><path d="M34.4 113h121v9.9h-121zm74 13.5h36.7v19.98h-36.7zm-11.7 0h8.1v19.98h-8.1z"/></symbol><symbol id="space-bubbles" viewBox="0 0 189.8 219.2"><path d="M68.7 128.3H56.8L41 147l2.5 3.6 30.4-16-5.2-6.3zm-22-12.9h98.5v9.36H46.7zm86.1-3.6a45.1 45.1 0 0 0 2.1-13.7 39 39 0 0 0-77.9 0c0 4.7.3 9.5 2.1 13.7zm-73.5 34.7h24.5l-7.4-9-17.1 9zm61.9-18.2l-5.4 6.3 30.6 16 2.6-3.4-15.9-18.9h-11.9z"/><path d="M94.9 0L0 54.8v109.6l94.9 54.8 94.9-54.8V54.8zm57.7 148.1l-4.2 5.9a1.7 1.7 0 0 1-2.3.6l-8.7-4.5H52.3l-8.6 4.5a1.9 1.9 0 0 1-2.4-.6l-4.1-5.9a1.7 1.7 0 0 1 .2-2.1l14.9-17.7h-7.4a1.7 1.7 0 0 1-1.8-1.8v-12.9a1.7 1.7 0 0 1 1.8-1.8h10.5a49.4 49.4 0 0 1-2-13.7 42.6 42.6 0 1 1 83.1 13.7H147a1.7 1.7 0 0 1 1.8 1.8v12.9a1.7 1.7 0 0 1-1.8 1.8h-9.2l14.8 17.7a2 2 0 0 1 0 2.1z"/><path d="M106.1 146.5h24.5l-17.1-9-7.4 9zm-32.7-18.2l15.1 18.2h12.9l15.2-18.2H73.4z"/></symbol></svg>