<svg xmlns="http://www.w3.org/2000/svg" width="220" height="220" viewBox="0 0 220 220"><path d="M104.2 135.6h11.5v11.34h-11.5zm-21.6 0h18v11.34h-18zm-15.1 0H79v11.34H67.5zm51.9 0h18v11.34h-18zM110 60.5c-21.1 0-38.7 12.8-39.6 36h79.2c-.9-23.2-18.5-36-39.6-36zM56.7 132h106.6v-31.9H56.7zm52.4-12.3H153a1.8 1.8 0 1 1 0 3.6h-43.9a1.8 1.8 0 0 1 0-3.6z"/><path d="M110 .4L15.1 55.2v109.6l94.9 54.8 94.9-54.8V55.2zm56.9 133.4a1.7 1.7 0 0 1-1.8 1.8h-9v11.3h9a1.8 1.8 0 1 1 0 3.6H54.9a1.8 1.8 0 1 1 0-3.6h9v-11.3h-9a1.7 1.7 0 0 1-1.8-1.8V98.3a1.7 1.7 0 0 1 1.8-1.8h11.9c.9-25.6 20-39.6 43.2-39.6s42.3 14 43.2 39.6h11.9a1.7 1.7 0 0 1 1.8 1.8z"/><path d="M141 135.6h11.5v11.34H141z"/></svg>