<svg xmlns="http://www.w3.org/2000/svg" width="220" height="220" viewBox="0 0 220 220"><path d="M83.8 128.7H71.9L56 147.4l2.6 3.6L89 135l-5.2-6.3zm-22-12.9h98.5v9.36H61.8zm86-3.6a42.3 42.3 0 0 0 2.2-13.7 39 39 0 0 0-77.9 0c0 4.7.3 9.5 2.1 13.7zm-73.4 34.7h24.5l-7.4-9-17.1 9zm61.9-18.2l-5.4 6.3 30.6 16 2.5-3.4-15.8-18.9h-11.9z"/><path d="M110 .4L15.1 55.2v109.6l94.9 54.8 94.9-54.8V55.2zm57.6 148.1l-4.1 6a1.8 1.8 0 0 1-2.3.5l-8.7-4.5H67.4l-8.7 4.5a1.9 1.9 0 0 1-2.3-.5l-4.1-6a1.8 1.8 0 0 1 .1-2.1l15-17.7H60a1.7 1.7 0 0 1-1.8-1.8V114a1.7 1.7 0 0 1 1.8-1.8h10.4a53.3 53.3 0 0 1-1.9-13.7 42.6 42.6 0 1 1 83.1 13.7h10.5a1.7 1.7 0 0 1 1.8 1.8v12.9a1.7 1.7 0 0 1-1.8 1.8h-9.2l14.7 17.7a1.7 1.7 0 0 1 0 2.1z"/><path d="M121.2 146.9h24.5l-17.1-9-7.4 9zm-32.8-18.2l15.2 18.2h12.9l15.1-18.2H88.4z"/></svg>