<svg xmlns="http://www.w3.org/2000/svg" width="220" height="220" viewBox="0 0 220 220"><path d="M106.4 69.9c-23 1.4-42.3 18.1-47.9 39.9h19.3zm1.8 39.9V73.5l-25.9 36.3h25.9zm3.6-40.1v40.1h49.7a53.6 53.6 0 0 0-49.7-40.1zm-52 57.2h48.4v19.98H59.8z"/><path d="M110 .4L15.1 55.2v109.6l94.9 54.8 94.9-54.8V55.2zm77.6 126.5h-23.8v21.8a1.7 1.7 0 0 1-1.8 1.8H58a1.7 1.7 0 0 1-1.8-1.8v-21.8H32.4a1.8 1.8 0 1 1 0-3.6h13.5v-11.7a1.7 1.7 0 0 1 1.8-1.8h7a57.2 57.2 0 0 1 55.1-43.7c.2-.2.4-.2.7 0a57 57 0 0 1 54.8 43.7h7a1.7 1.7 0 0 1 1.8 1.8v11.7h13.5a1.8 1.8 0 1 1 0 3.6z"/><path d="M49.5 113.4h121v9.9h-121zm74 13.5h36.7v19.98h-36.7zm-11.7 0h8.1v19.98h-8.1z"/></svg>